<svg viewBox="0 0 1024 1024" xmlns="http://www.w3.org/2000/svg"><defs>
<linearGradient id="bg" x1="0" y1="0" x2="0.6" y2="1"><stop offset="0" stop-color="#221c30"/><stop offset="0.5" stop-color="#171622"/><stop offset="1" stop-color="#0c0a12"/></linearGradient>
<radialGradient id="glow" cx="0.32" cy="0.26" r="0.9"><stop offset="0" stop-color="#e879f9" stop-opacity="0.40"/><stop offset="0.6" stop-color="#e879f9" stop-opacity="0"/></radialGradient>
<linearGradient id="gloss" x1="0" y1="0" x2="0" y2="1"><stop offset="0" stop-color="#ffffff" stop-opacity="0.16"/><stop offset="0.42" stop-color="#ffffff" stop-opacity="0.02"/><stop offset="1" stop-color="#ffffff" stop-opacity="0"/></linearGradient>
<linearGradient id="fillN" gradientUnits="userSpaceOnUse" x1="395" y1="344" x2="629" y2="682"><stop offset="0" stop-color="#f0abfc"/><stop offset="0.5" stop-color="#e879f9"/><stop offset="1" stop-color="#a855f7"/></linearGradient>
<linearGradient id="brk" gradientUnits="userSpaceOnUse" x1="270" y1="366" x2="754" y2="658"><stop offset="0" stop-color="#c4b5fd"/><stop offset="1" stop-color="#8b5cf6"/></linearGradient>
<radialGradient id="spk" cx="0.4" cy="0.3" r="0.85"><stop offset="0" stop-color="#ffd6f5"/><stop offset="1" stop-color="#e879f9"/></radialGradient>
<filter id="drop" x="-40%" y="-40%" width="180%" height="180%"><feDropShadow dx="0" dy="26" stdDeviation="34" flood-color="#000000" flood-opacity="0.55"/></filter>
<filter id="neonN" x="-70%" y="-70%" width="240%" height="240%"><feDropShadow dx="0" dy="0" stdDeviation="20" flood-color="#e879f9" flood-opacity="0.85"/></filter>
<filter id="brkglow" x="-60%" y="-60%" width="220%" height="220%"><feDropShadow dx="0" dy="0" stdDeviation="10" flood-color="#8b5cf6" flood-opacity="0.6"/></filter>
<linearGradient id="borderGrad" x1="0" y1="0" x2="1" y2="1"><stop offset="0" stop-color="#4a9eff"/><stop offset="0.28" stop-color="#10c99a"/><stop offset="0.52" stop-color="#f2a83a"/><stop offset="0.74" stop-color="#f26d70"/><stop offset="1" stop-color="#a678f0"/></linearGradient><filter id="borderGlow" x="-20%" y="-20%" width="140%" height="140%"><feDropShadow dx="0" dy="0" stdDeviation="9" flood-color="#7aa8ff" flood-opacity="0.35"/></filter></defs>
<g transform="translate(512,512) scale(1.42) translate(-512,-512)">
<g fill="none" stroke="url(#brk)" stroke-width="30" stroke-linecap="round" stroke-linejoin="round" opacity="0.92" filter="url(#brkglow)"><path d="M 342 322 Q 296 322 296 380 L 296 486 Q 296 512 270 512 Q 296 512 296 538 L 296 644 Q 296 702 342 702"/><path d="M 682 322 Q 728 322 728 380 L 728 486 Q 728 512 754 512 Q 728 512 728 538 L 728 644 Q 728 702 682 702"/></g>
<g fill="none" stroke="url(#fillN)" stroke-width="72" stroke-linecap="round" stroke-linejoin="round" filter="url(#neonN)" transform="translate(512,512) scale(0.82) translate(-512,-512)"><path d="M 431.0 344 L 431.0 682"/><path d="M 431.0 344 L 593.0 682"/><path d="M 593.0 344 L 593.0 682"/></g>
<g filter="url(#neonN)" transform="translate(154,166) scale(0.62)"><path d="M 716.00 242.00 Q 723.54 292.46 774.00 300.00 Q 723.54 307.54 716.00 358.00 Q 708.46 307.54 658.00 300.00 Q 708.46 292.46 716.00 242.00 Z" fill="url(#spk)"/><path d="M 716.00 274.00 Q 720.16 295.84 742.00 300.00 Q 720.16 304.16 716.00 326.00 Q 711.84 304.16 690.00 300.00 Q 711.84 295.84 716.00 274.00 Z" fill="#ffffff"/></g>
</g>
</svg>