<svg viewBox="0 0 1024 1024" xmlns="http://www.w3.org/2000/svg"><defs>
<linearGradient id="bg" x1="0" y1="0" x2="0.6" y2="1"><stop offset="0" stop-color="#221c30"/><stop offset="0.5" stop-color="#171622"/><stop offset="1" stop-color="#0c0a12"/></linearGradient>
<radialGradient id="glow" cx="0.32" cy="0.26" r="0.9"><stop offset="0" stop-color="#e879f9" stop-opacity="0.40"/><stop offset="0.6" stop-color="#e879f9" stop-opacity="0"/></radialGradient>
<linearGradient id="gloss" x1="0" y1="0" x2="0" y2="1"><stop offset="0" stop-color="#ffffff" stop-opacity="0.16"/><stop offset="0.42" stop-color="#ffffff" stop-opacity="0.02"/><stop offset="1" stop-color="#ffffff" stop-opacity="0"/></linearGradient>
<linearGradient id="fillN" gradientUnits="userSpaceOnUse" x1="395" y1="344" x2="629" y2="682"><stop offset="0" stop-color="#f0abfc"/><stop offset="0.5" stop-color="#e879f9"/><stop offset="1" stop-color="#a855f7"/></linearGradient>
<linearGradient id="brk" gradientUnits="userSpaceOnUse" x1="270" y1="366" x2="754" y2="658"><stop offset="0" stop-color="#c4b5fd"/><stop offset="1" stop-color="#8b5cf6"/></linearGradient>
<radialGradient id="spk" cx="0.4" cy="0.3" r="0.85"><stop offset="0" stop-color="#ffd6f5"/><stop offset="1" stop-color="#e879f9"/></radialGradient>
<filter id="drop" x="-40%" y="-40%" width="180%" height="180%"><feDropShadow dx="0" dy="26" stdDeviation="34" flood-color="#000000" flood-opacity="0.55"/></filter>
<filter id="neonN" x="-70%" y="-70%" width="240%" height="240%"><feDropShadow dx="0" dy="0" stdDeviation="20" flood-color="#e879f9" flood-opacity="0.85"/></filter>
<filter id="brkglow" x="-60%" y="-60%" width="220%" height="220%"><feDropShadow dx="0" dy="0" stdDeviation="10" flood-color="#8b5cf6" flood-opacity="0.6"/></filter>
<linearGradient id="borderGrad" x1="0" y1="0" x2="1" y2="1"><stop offset="0" stop-color="#4a9eff"/><stop offset="0.28" stop-color="#10c99a"/><stop offset="0.52" stop-color="#f2a83a"/><stop offset="0.74" stop-color="#f26d70"/><stop offset="1" stop-color="#a678f0"/></linearGradient><filter id="borderGlow" x="-20%" y="-20%" width="140%" height="140%"><feDropShadow dx="0" dy="0" stdDeviation="9" flood-color="#7aa8ff" flood-opacity="0.35"/></filter></defs>
<g filter="url(#drop)">
<path d="M 964.00 512.00 L 963.89 630.10 L 963.56 667.80 L 963.01 695.16 L 962.24 717.38 L 961.24 736.39 L 960.02 753.15 L 958.58 768.22 L 956.91 781.94 L 955.02 794.57 L 952.89 806.28 L 950.54 817.19 L 947.94 827.40 L 945.11 836.99 L 942.04 846.03 L 938.73 854.55 L 935.16 862.61 L 931.34 870.23 L 927.26 877.45 L 922.91 884.28 L 918.29 890.76 L 913.39 896.90 L 908.20 902.70 L 902.70 908.20 L 896.90 913.39 L 890.76 918.29 L 884.28 922.91 L 877.45 927.26 L 870.23 931.34 L 862.61 935.16 L 854.55 938.73 L 846.03 942.04 L 836.99 945.11 L 827.40 947.94 L 817.19 950.54 L 806.28 952.89 L 794.57 955.02 L 781.94 956.91 L 768.22 958.58 L 753.15 960.02 L 736.39 961.24 L 717.38 962.24 L 695.16 963.01 L 667.80 963.56 L 630.10 963.89 L 512.00 964.00 L 393.90 963.89 L 356.20 963.56 L 328.84 963.01 L 306.62 962.24 L 287.61 961.24 L 270.85 960.02 L 255.78 958.58 L 242.06 956.91 L 229.43 955.02 L 217.72 952.89 L 206.81 950.54 L 196.60 947.94 L 187.01 945.11 L 177.97 942.04 L 169.45 938.73 L 161.39 935.16 L 153.77 931.34 L 146.55 927.26 L 139.72 922.91 L 133.24 918.29 L 127.10 913.39 L 121.30 908.20 L 115.80 902.70 L 110.61 896.90 L 105.71 890.76 L 101.09 884.28 L 96.74 877.45 L 92.66 870.23 L 88.84 862.61 L 85.27 854.55 L 81.96 846.03 L 78.89 836.99 L 76.06 827.40 L 73.46 817.19 L 71.11 806.28 L 68.98 794.57 L 67.09 781.94 L 65.42 768.22 L 63.98 753.15 L 62.76 736.39 L 61.76 717.38 L 60.99 695.16 L 60.44 667.80 L 60.11 630.10 L 60.00 512.00 L 60.11 393.90 L 60.44 356.20 L 60.99 328.84 L 61.76 306.62 L 62.76 287.61 L 63.98 270.85 L 65.42 255.78 L 67.09 242.06 L 68.98 229.43 L 71.11 217.72 L 73.46 206.81 L 76.06 196.60 L 78.89 187.01 L 81.96 177.97 L 85.27 169.45 L 88.84 161.39 L 92.66 153.77 L 96.74 146.55 L 101.09 139.72 L 105.71 133.24 L 110.61 127.10 L 115.80 121.30 L 121.30 115.80 L 127.10 110.61 L 133.24 105.71 L 139.72 101.09 L 146.55 96.74 L 153.77 92.66 L 161.39 88.84 L 169.45 85.27 L 177.97 81.96 L 187.01 78.89 L 196.60 76.06 L 206.81 73.46 L 217.72 71.11 L 229.43 68.98 L 242.06 67.09 L 255.78 65.42 L 270.85 63.98 L 287.61 62.76 L 306.62 61.76 L 328.84 60.99 L 356.20 60.44 L 393.90 60.11 L 512.00 60.00 L 630.10 60.11 L 667.80 60.44 L 695.16 60.99 L 717.38 61.76 L 736.39 62.76 L 753.15 63.98 L 768.22 65.42 L 781.94 67.09 L 794.57 68.98 L 806.28 71.11 L 817.19 73.46 L 827.40 76.06 L 836.99 78.89 L 846.03 81.96 L 854.55 85.27 L 862.61 88.84 L 870.23 92.66 L 877.45 96.74 L 884.28 101.09 L 890.76 105.71 L 896.90 110.61 L 902.70 115.80 L 908.20 121.30 L 913.39 127.10 L 918.29 133.24 L 922.91 139.72 L 927.26 146.55 L 931.34 153.77 L 935.16 161.39 L 938.73 169.45 L 942.04 177.97 L 945.11 187.01 L 947.94 196.60 L 950.54 206.81 L 952.89 217.72 L 955.02 229.43 L 956.91 242.06 L 958.58 255.78 L 960.02 270.85 L 961.24 287.61 L 962.24 306.62 L 963.01 328.84 L 963.56 356.20 L 963.89 393.90 L 964.00 512.00 Z" fill="url(#bg)"/><path d="M 964.00 512.00 L 963.89 630.10 L 963.56 667.80 L 963.01 695.16 L 962.24 717.38 L 961.24 736.39 L 960.02 753.15 L 958.58 768.22 L 956.91 781.94 L 955.02 794.57 L 952.89 806.28 L 950.54 817.19 L 947.94 827.40 L 945.11 836.99 L 942.04 846.03 L 938.73 854.55 L 935.16 862.61 L 931.34 870.23 L 927.26 877.45 L 922.91 884.28 L 918.29 890.76 L 913.39 896.90 L 908.20 902.70 L 902.70 908.20 L 896.90 913.39 L 890.76 918.29 L 884.28 922.91 L 877.45 927.26 L 870.23 931.34 L 862.61 935.16 L 854.55 938.73 L 846.03 942.04 L 836.99 945.11 L 827.40 947.94 L 817.19 950.54 L 806.28 952.89 L 794.57 955.02 L 781.94 956.91 L 768.22 958.58 L 753.15 960.02 L 736.39 961.24 L 717.38 962.24 L 695.16 963.01 L 667.80 963.56 L 630.10 963.89 L 512.00 964.00 L 393.90 963.89 L 356.20 963.56 L 328.84 963.01 L 306.62 962.24 L 287.61 961.24 L 270.85 960.02 L 255.78 958.58 L 242.06 956.91 L 229.43 955.02 L 217.72 952.89 L 206.81 950.54 L 196.60 947.94 L 187.01 945.11 L 177.97 942.04 L 169.45 938.73 L 161.39 935.16 L 153.77 931.34 L 146.55 927.26 L 139.72 922.91 L 133.24 918.29 L 127.10 913.39 L 121.30 908.20 L 115.80 902.70 L 110.61 896.90 L 105.71 890.76 L 101.09 884.28 L 96.74 877.45 L 92.66 870.23 L 88.84 862.61 L 85.27 854.55 L 81.96 846.03 L 78.89 836.99 L 76.06 827.40 L 73.46 817.19 L 71.11 806.28 L 68.98 794.57 L 67.09 781.94 L 65.42 768.22 L 63.98 753.15 L 62.76 736.39 L 61.76 717.38 L 60.99 695.16 L 60.44 667.80 L 60.11 630.10 L 60.00 512.00 L 60.11 393.90 L 60.44 356.20 L 60.99 328.84 L 61.76 306.62 L 62.76 287.61 L 63.98 270.85 L 65.42 255.78 L 67.09 242.06 L 68.98 229.43 L 71.11 217.72 L 73.46 206.81 L 76.06 196.60 L 78.89 187.01 L 81.96 177.97 L 85.27 169.45 L 88.84 161.39 L 92.66 153.77 L 96.74 146.55 L 101.09 139.72 L 105.71 133.24 L 110.61 127.10 L 115.80 121.30 L 121.30 115.80 L 127.10 110.61 L 133.24 105.71 L 139.72 101.09 L 146.55 96.74 L 153.77 92.66 L 161.39 88.84 L 169.45 85.27 L 177.97 81.96 L 187.01 78.89 L 196.60 76.06 L 206.81 73.46 L 217.72 71.11 L 229.43 68.98 L 242.06 67.09 L 255.78 65.42 L 270.85 63.98 L 287.61 62.76 L 306.62 61.76 L 328.84 60.99 L 356.20 60.44 L 393.90 60.11 L 512.00 60.00 L 630.10 60.11 L 667.80 60.44 L 695.16 60.99 L 717.38 61.76 L 736.39 62.76 L 753.15 63.98 L 768.22 65.42 L 781.94 67.09 L 794.57 68.98 L 806.28 71.11 L 817.19 73.46 L 827.40 76.06 L 836.99 78.89 L 846.03 81.96 L 854.55 85.27 L 862.61 88.84 L 870.23 92.66 L 877.45 96.74 L 884.28 101.09 L 890.76 105.71 L 896.90 110.61 L 902.70 115.80 L 908.20 121.30 L 913.39 127.10 L 918.29 133.24 L 922.91 139.72 L 927.26 146.55 L 931.34 153.77 L 935.16 161.39 L 938.73 169.45 L 942.04 177.97 L 945.11 187.01 L 947.94 196.60 L 950.54 206.81 L 952.89 217.72 L 955.02 229.43 L 956.91 242.06 L 958.58 255.78 L 960.02 270.85 L 961.24 287.61 L 962.24 306.62 L 963.01 328.84 L 963.56 356.20 L 963.89 393.90 L 964.00 512.00 Z" fill="url(#glow)"/><path d="M 964.00 512.00 L 963.89 630.10 L 963.56 667.80 L 963.01 695.16 L 962.24 717.38 L 961.24 736.39 L 960.02 753.15 L 958.58 768.22 L 956.91 781.94 L 955.02 794.57 L 952.89 806.28 L 950.54 817.19 L 947.94 827.40 L 945.11 836.99 L 942.04 846.03 L 938.73 854.55 L 935.16 862.61 L 931.34 870.23 L 927.26 877.45 L 922.91 884.28 L 918.29 890.76 L 913.39 896.90 L 908.20 902.70 L 902.70 908.20 L 896.90 913.39 L 890.76 918.29 L 884.28 922.91 L 877.45 927.26 L 870.23 931.34 L 862.61 935.16 L 854.55 938.73 L 846.03 942.04 L 836.99 945.11 L 827.40 947.94 L 817.19 950.54 L 806.28 952.89 L 794.57 955.02 L 781.94 956.91 L 768.22 958.58 L 753.15 960.02 L 736.39 961.24 L 717.38 962.24 L 695.16 963.01 L 667.80 963.56 L 630.10 963.89 L 512.00 964.00 L 393.90 963.89 L 356.20 963.56 L 328.84 963.01 L 306.62 962.24 L 287.61 961.24 L 270.85 960.02 L 255.78 958.58 L 242.06 956.91 L 229.43 955.02 L 217.72 952.89 L 206.81 950.54 L 196.60 947.94 L 187.01 945.11 L 177.97 942.04 L 169.45 938.73 L 161.39 935.16 L 153.77 931.34 L 146.55 927.26 L 139.72 922.91 L 133.24 918.29 L 127.10 913.39 L 121.30 908.20 L 115.80 902.70 L 110.61 896.90 L 105.71 890.76 L 101.09 884.28 L 96.74 877.45 L 92.66 870.23 L 88.84 862.61 L 85.27 854.55 L 81.96 846.03 L 78.89 836.99 L 76.06 827.40 L 73.46 817.19 L 71.11 806.28 L 68.98 794.57 L 67.09 781.94 L 65.42 768.22 L 63.98 753.15 L 62.76 736.39 L 61.76 717.38 L 60.99 695.16 L 60.44 667.80 L 60.11 630.10 L 60.00 512.00 L 60.11 393.90 L 60.44 356.20 L 60.99 328.84 L 61.76 306.62 L 62.76 287.61 L 63.98 270.85 L 65.42 255.78 L 67.09 242.06 L 68.98 229.43 L 71.11 217.72 L 73.46 206.81 L 76.06 196.60 L 78.89 187.01 L 81.96 177.97 L 85.27 169.45 L 88.84 161.39 L 92.66 153.77 L 96.74 146.55 L 101.09 139.72 L 105.71 133.24 L 110.61 127.10 L 115.80 121.30 L 121.30 115.80 L 127.10 110.61 L 133.24 105.71 L 139.72 101.09 L 146.55 96.74 L 153.77 92.66 L 161.39 88.84 L 169.45 85.27 L 177.97 81.96 L 187.01 78.89 L 196.60 76.06 L 206.81 73.46 L 217.72 71.11 L 229.43 68.98 L 242.06 67.09 L 255.78 65.42 L 270.85 63.98 L 287.61 62.76 L 306.62 61.76 L 328.84 60.99 L 356.20 60.44 L 393.90 60.11 L 512.00 60.00 L 630.10 60.11 L 667.80 60.44 L 695.16 60.99 L 717.38 61.76 L 736.39 62.76 L 753.15 63.98 L 768.22 65.42 L 781.94 67.09 L 794.57 68.98 L 806.28 71.11 L 817.19 73.46 L 827.40 76.06 L 836.99 78.89 L 846.03 81.96 L 854.55 85.27 L 862.61 88.84 L 870.23 92.66 L 877.45 96.74 L 884.28 101.09 L 890.76 105.71 L 896.90 110.61 L 902.70 115.80 L 908.20 121.30 L 913.39 127.10 L 918.29 133.24 L 922.91 139.72 L 927.26 146.55 L 931.34 153.77 L 935.16 161.39 L 938.73 169.45 L 942.04 177.97 L 945.11 187.01 L 947.94 196.60 L 950.54 206.81 L 952.89 217.72 L 955.02 229.43 L 956.91 242.06 L 958.58 255.78 L 960.02 270.85 L 961.24 287.61 L 962.24 306.62 L 963.01 328.84 L 963.56 356.20 L 963.89 393.90 L 964.00 512.00 Z" fill="url(#gloss)"/>
<path d="M 964.00 512.00 L 963.89 630.10 L 963.56 667.80 L 963.01 695.16 L 962.24 717.38 L 961.24 736.39 L 960.02 753.15 L 958.58 768.22 L 956.91 781.94 L 955.02 794.57 L 952.89 806.28 L 950.54 817.19 L 947.94 827.40 L 945.11 836.99 L 942.04 846.03 L 938.73 854.55 L 935.16 862.61 L 931.34 870.23 L 927.26 877.45 L 922.91 884.28 L 918.29 890.76 L 913.39 896.90 L 908.20 902.70 L 902.70 908.20 L 896.90 913.39 L 890.76 918.29 L 884.28 922.91 L 877.45 927.26 L 870.23 931.34 L 862.61 935.16 L 854.55 938.73 L 846.03 942.04 L 836.99 945.11 L 827.40 947.94 L 817.19 950.54 L 806.28 952.89 L 794.57 955.02 L 781.94 956.91 L 768.22 958.58 L 753.15 960.02 L 736.39 961.24 L 717.38 962.24 L 695.16 963.01 L 667.80 963.56 L 630.10 963.89 L 512.00 964.00 L 393.90 963.89 L 356.20 963.56 L 328.84 963.01 L 306.62 962.24 L 287.61 961.24 L 270.85 960.02 L 255.78 958.58 L 242.06 956.91 L 229.43 955.02 L 217.72 952.89 L 206.81 950.54 L 196.60 947.94 L 187.01 945.11 L 177.97 942.04 L 169.45 938.73 L 161.39 935.16 L 153.77 931.34 L 146.55 927.26 L 139.72 922.91 L 133.24 918.29 L 127.10 913.39 L 121.30 908.20 L 115.80 902.70 L 110.61 896.90 L 105.71 890.76 L 101.09 884.28 L 96.74 877.45 L 92.66 870.23 L 88.84 862.61 L 85.27 854.55 L 81.96 846.03 L 78.89 836.99 L 76.06 827.40 L 73.46 817.19 L 71.11 806.28 L 68.98 794.57 L 67.09 781.94 L 65.42 768.22 L 63.98 753.15 L 62.76 736.39 L 61.76 717.38 L 60.99 695.16 L 60.44 667.80 L 60.11 630.10 L 60.00 512.00 L 60.11 393.90 L 60.44 356.20 L 60.99 328.84 L 61.76 306.62 L 62.76 287.61 L 63.98 270.85 L 65.42 255.78 L 67.09 242.06 L 68.98 229.43 L 71.11 217.72 L 73.46 206.81 L 76.06 196.60 L 78.89 187.01 L 81.96 177.97 L 85.27 169.45 L 88.84 161.39 L 92.66 153.77 L 96.74 146.55 L 101.09 139.72 L 105.71 133.24 L 110.61 127.10 L 115.80 121.30 L 121.30 115.80 L 127.10 110.61 L 133.24 105.71 L 139.72 101.09 L 146.55 96.74 L 153.77 92.66 L 161.39 88.84 L 169.45 85.27 L 177.97 81.96 L 187.01 78.89 L 196.60 76.06 L 206.81 73.46 L 217.72 71.11 L 229.43 68.98 L 242.06 67.09 L 255.78 65.42 L 270.85 63.98 L 287.61 62.76 L 306.62 61.76 L 328.84 60.99 L 356.20 60.44 L 393.90 60.11 L 512.00 60.00 L 630.10 60.11 L 667.80 60.44 L 695.16 60.99 L 717.38 61.76 L 736.39 62.76 L 753.15 63.98 L 768.22 65.42 L 781.94 67.09 L 794.57 68.98 L 806.28 71.11 L 817.19 73.46 L 827.40 76.06 L 836.99 78.89 L 846.03 81.96 L 854.55 85.27 L 862.61 88.84 L 870.23 92.66 L 877.45 96.74 L 884.28 101.09 L 890.76 105.71 L 896.90 110.61 L 902.70 115.80 L 908.20 121.30 L 913.39 127.10 L 918.29 133.24 L 922.91 139.72 L 927.26 146.55 L 931.34 153.77 L 935.16 161.39 L 938.73 169.45 L 942.04 177.97 L 945.11 187.01 L 947.94 196.60 L 950.54 206.81 L 952.89 217.72 L 955.02 229.43 L 956.91 242.06 L 958.58 255.78 L 960.02 270.85 L 961.24 287.61 L 962.24 306.62 L 963.01 328.84 L 963.56 356.20 L 963.89 393.90 L 964.00 512.00 Z" fill="none" stroke="#ffffff" stroke-opacity="0.10" stroke-width="3"/>
<path d="M 964.00 512.00 L 963.89 630.10 L 963.56 667.80 L 963.01 695.16 L 962.24 717.38 L 961.24 736.39 L 960.02 753.15 L 958.58 768.22 L 956.91 781.94 L 955.02 794.57 L 952.89 806.28 L 950.54 817.19 L 947.94 827.40 L 945.11 836.99 L 942.04 846.03 L 938.73 854.55 L 935.16 862.61 L 931.34 870.23 L 927.26 877.45 L 922.91 884.28 L 918.29 890.76 L 913.39 896.90 L 908.20 902.70 L 902.70 908.20 L 896.90 913.39 L 890.76 918.29 L 884.28 922.91 L 877.45 927.26 L 870.23 931.34 L 862.61 935.16 L 854.55 938.73 L 846.03 942.04 L 836.99 945.11 L 827.40 947.94 L 817.19 950.54 L 806.28 952.89 L 794.57 955.02 L 781.94 956.91 L 768.22 958.58 L 753.15 960.02 L 736.39 961.24 L 717.38 962.24 L 695.16 963.01 L 667.80 963.56 L 630.10 963.89 L 512.00 964.00 L 393.90 963.89 L 356.20 963.56 L 328.84 963.01 L 306.62 962.24 L 287.61 961.24 L 270.85 960.02 L 255.78 958.58 L 242.06 956.91 L 229.43 955.02 L 217.72 952.89 L 206.81 950.54 L 196.60 947.94 L 187.01 945.11 L 177.97 942.04 L 169.45 938.73 L 161.39 935.16 L 153.77 931.34 L 146.55 927.26 L 139.72 922.91 L 133.24 918.29 L 127.10 913.39 L 121.30 908.20 L 115.80 902.70 L 110.61 896.90 L 105.71 890.76 L 101.09 884.28 L 96.74 877.45 L 92.66 870.23 L 88.84 862.61 L 85.27 854.55 L 81.96 846.03 L 78.89 836.99 L 76.06 827.40 L 73.46 817.19 L 71.11 806.28 L 68.98 794.57 L 67.09 781.94 L 65.42 768.22 L 63.98 753.15 L 62.76 736.39 L 61.76 717.38 L 60.99 695.16 L 60.44 667.80 L 60.11 630.10 L 60.00 512.00 L 60.11 393.90 L 60.44 356.20 L 60.99 328.84 L 61.76 306.62 L 62.76 287.61 L 63.98 270.85 L 65.42 255.78 L 67.09 242.06 L 68.98 229.43 L 71.11 217.72 L 73.46 206.81 L 76.06 196.60 L 78.89 187.01 L 81.96 177.97 L 85.27 169.45 L 88.84 161.39 L 92.66 153.77 L 96.74 146.55 L 101.09 139.72 L 105.71 133.24 L 110.61 127.10 L 115.80 121.30 L 121.30 115.80 L 127.10 110.61 L 133.24 105.71 L 139.72 101.09 L 146.55 96.74 L 153.77 92.66 L 161.39 88.84 L 169.45 85.27 L 177.97 81.96 L 187.01 78.89 L 196.60 76.06 L 206.81 73.46 L 217.72 71.11 L 229.43 68.98 L 242.06 67.09 L 255.78 65.42 L 270.85 63.98 L 287.61 62.76 L 306.62 61.76 L 328.84 60.99 L 356.20 60.44 L 393.90 60.11 L 512.00 60.00 L 630.10 60.11 L 667.80 60.44 L 695.16 60.99 L 717.38 61.76 L 736.39 62.76 L 753.15 63.98 L 768.22 65.42 L 781.94 67.09 L 794.57 68.98 L 806.28 71.11 L 817.19 73.46 L 827.40 76.06 L 836.99 78.89 L 846.03 81.96 L 854.55 85.27 L 862.61 88.84 L 870.23 92.66 L 877.45 96.74 L 884.28 101.09 L 890.76 105.71 L 896.90 110.61 L 902.70 115.80 L 908.20 121.30 L 913.39 127.10 L 918.29 133.24 L 922.91 139.72 L 927.26 146.55 L 931.34 153.77 L 935.16 161.39 L 938.73 169.45 L 942.04 177.97 L 945.11 187.01 L 947.94 196.60 L 950.54 206.81 L 952.89 217.72 L 955.02 229.43 L 956.91 242.06 L 958.58 255.78 L 960.02 270.85 L 961.24 287.61 L 962.24 306.62 L 963.01 328.84 L 963.56 356.20 L 963.89 393.90 L 964.00 512.00 Z" fill="none" stroke="#000000" stroke-opacity="0.35" stroke-width="1.5"/>
</g>
<path d="M 964.00 512.00 L 963.89 630.10 L 963.56 667.80 L 963.01 695.16 L 962.24 717.38 L 961.24 736.39 L 960.02 753.15 L 958.58 768.22 L 956.91 781.94 L 955.02 794.57 L 952.89 806.28 L 950.54 817.19 L 947.94 827.40 L 945.11 836.99 L 942.04 846.03 L 938.73 854.55 L 935.16 862.61 L 931.34 870.23 L 927.26 877.45 L 922.91 884.28 L 918.29 890.76 L 913.39 896.90 L 908.20 902.70 L 902.70 908.20 L 896.90 913.39 L 890.76 918.29 L 884.28 922.91 L 877.45 927.26 L 870.23 931.34 L 862.61 935.16 L 854.55 938.73 L 846.03 942.04 L 836.99 945.11 L 827.40 947.94 L 817.19 950.54 L 806.28 952.89 L 794.57 955.02 L 781.94 956.91 L 768.22 958.58 L 753.15 960.02 L 736.39 961.24 L 717.38 962.24 L 695.16 963.01 L 667.80 963.56 L 630.10 963.89 L 512.00 964.00 L 393.90 963.89 L 356.20 963.56 L 328.84 963.01 L 306.62 962.24 L 287.61 961.24 L 270.85 960.02 L 255.78 958.58 L 242.06 956.91 L 229.43 955.02 L 217.72 952.89 L 206.81 950.54 L 196.60 947.94 L 187.01 945.11 L 177.97 942.04 L 169.45 938.73 L 161.39 935.16 L 153.77 931.34 L 146.55 927.26 L 139.72 922.91 L 133.24 918.29 L 127.10 913.39 L 121.30 908.20 L 115.80 902.70 L 110.61 896.90 L 105.71 890.76 L 101.09 884.28 L 96.74 877.45 L 92.66 870.23 L 88.84 862.61 L 85.27 854.55 L 81.96 846.03 L 78.89 836.99 L 76.06 827.40 L 73.46 817.19 L 71.11 806.28 L 68.98 794.57 L 67.09 781.94 L 65.42 768.22 L 63.98 753.15 L 62.76 736.39 L 61.76 717.38 L 60.99 695.16 L 60.44 667.80 L 60.11 630.10 L 60.00 512.00 L 60.11 393.90 L 60.44 356.20 L 60.99 328.84 L 61.76 306.62 L 62.76 287.61 L 63.98 270.85 L 65.42 255.78 L 67.09 242.06 L 68.98 229.43 L 71.11 217.72 L 73.46 206.81 L 76.06 196.60 L 78.89 187.01 L 81.96 177.97 L 85.27 169.45 L 88.84 161.39 L 92.66 153.77 L 96.74 146.55 L 101.09 139.72 L 105.71 133.24 L 110.61 127.10 L 115.80 121.30 L 121.30 115.80 L 127.10 110.61 L 133.24 105.71 L 139.72 101.09 L 146.55 96.74 L 153.77 92.66 L 161.39 88.84 L 169.45 85.27 L 177.97 81.96 L 187.01 78.89 L 196.60 76.06 L 206.81 73.46 L 217.72 71.11 L 229.43 68.98 L 242.06 67.09 L 255.78 65.42 L 270.85 63.98 L 287.61 62.76 L 306.62 61.76 L 328.84 60.99 L 356.20 60.44 L 393.90 60.11 L 512.00 60.00 L 630.10 60.11 L 667.80 60.44 L 695.16 60.99 L 717.38 61.76 L 736.39 62.76 L 753.15 63.98 L 768.22 65.42 L 781.94 67.09 L 794.57 68.98 L 806.28 71.11 L 817.19 73.46 L 827.40 76.06 L 836.99 78.89 L 846.03 81.96 L 854.55 85.27 L 862.61 88.84 L 870.23 92.66 L 877.45 96.74 L 884.28 101.09 L 890.76 105.71 L 896.90 110.61 L 902.70 115.80 L 908.20 121.30 L 913.39 127.10 L 918.29 133.24 L 922.91 139.72 L 927.26 146.55 L 931.34 153.77 L 935.16 161.39 L 938.73 169.45 L 942.04 177.97 L 945.11 187.01 L 947.94 196.60 L 950.54 206.81 L 952.89 217.72 L 955.02 229.43 L 956.91 242.06 L 958.58 255.78 L 960.02 270.85 L 961.24 287.61 L 962.24 306.62 L 963.01 328.84 L 963.56 356.20 L 963.89 393.90 L 964.00 512.00 Z" fill="none" stroke="url(#borderGrad)" stroke-width="8" stroke-linejoin="round" filter="url(#borderGlow)"/>
<g transform="translate(0,4) translate(512,512) scale(1.42) translate(-512,-512)">
<g fill="none" stroke="url(#brk)" stroke-width="30" stroke-linecap="round" stroke-linejoin="round" opacity="0.92" filter="url(#brkglow)"><path d="M 342 322 Q 296 322 296 380 L 296 486 Q 296 512 270 512 Q 296 512 296 538 L 296 644 Q 296 702 342 702"/><path d="M 682 322 Q 728 322 728 380 L 728 486 Q 728 512 754 512 Q 728 512 728 538 L 728 644 Q 728 702 682 702"/></g>
<g fill="none" stroke="url(#fillN)" stroke-width="72" stroke-linecap="round" stroke-linejoin="round" filter="url(#neonN)" transform="translate(512,512) scale(0.82) translate(-512,-512)"><path d="M 431.0 344 L 431.0 682"/><path d="M 431.0 344 L 593.0 682"/><path d="M 593.0 344 L 593.0 682"/></g>
<g filter="url(#neonN)" transform="translate(154,166) scale(0.62)"><path d="M 716.00 242.00 Q 723.54 292.46 774.00 300.00 Q 723.54 307.54 716.00 358.00 Q 708.46 307.54 658.00 300.00 Q 708.46 292.46 716.00 242.00 Z" fill="url(#spk)"/><path d="M 716.00 274.00 Q 720.16 295.84 742.00 300.00 Q 720.16 304.16 716.00 326.00 Q 711.84 304.16 690.00 300.00 Q 711.84 295.84 716.00 274.00 Z" fill="#ffffff"/></g>
</g>
</svg>